<svg width="54" height="54" viewBox="0 0 54 54" fill="none" xmlns="http://www.w3.org/2000/svg">
<path d="M26.3954 0C34.0603 -2.52424e-10 37.8393 6.39238 37.8259 11.701C39.2703 11.3563 41.3403 11.0168 42.8471 11.1858C44.3316 11.1858 46.1319 11.5029 47.4717 12.1598C48.8116 12.8168 49.6622 13.6028 50.6311 14.6477C51.6 15.6926 52.2019 17.0444 52.4766 18.3758C52.7514 19.7073 52.8671 21.3787 52.7305 22.6874C52.5938 23.9962 52.3225 25.3978 51.6196 26.5423C50.9167 27.6867 50.0555 28.6164 48.6681 29.4696C46.5773 30.7555 44.722 30.6891 43.2776 31.0338L43.2296 49H10.929L10.7086 31.1003C9.20079 30.783 7.21041 30.2079 5.9403 29.4088C4.6702 28.6097 3.58688 27.6028 2.75422 26.4475C1.92155 25.2922 1.3564 24.0119 1.0921 22.682C0.82779 21.3522 0.869674 19.9997 1.21528 18.7044C1.56089 17.4091 2.20322 16.1971 3.1044 15.14C4.00558 14.0829 4.90293 13.2629 6.218 12.6102C7.53306 11.9575 9.14052 11.3315 10.6627 11.1858C10.6627 11.1858 12.4445 10.9194 14.8897 11.1858C14.8898 8.9172 15.6535 6.39277 17.2977 4.32349C20.213 0.654481 23.5831 0 26.3954 0ZM10.9558 38.9751L39.3023 45.5369L10.9558 38.9751Z" fill="#4CAF74"/>
<path d="M35.1626 41H38.3821V23.8031H45V14H23V23.8031H29.6179" stroke="white" stroke-width="1.8"/>
<g filter="url(#filter0_d_2_78)">
<path d="M19.2073 13C19.2073 22.938 19.2073 36.8049 19.2073 36.8049H14V45H35V36.8049H26.5488" stroke="white" stroke-width="1.8"/>
</g>
<g filter="url(#filter1_d_2_78)">
<ellipse cx="26.8015" cy="36.8014" rx="1.80147" ry="1.80145" fill="white"/>
</g>
<g filter="url(#filter2_d_2_78)">
<ellipse cx="29.8015" cy="23.8014" rx="1.80147" ry="1.80145" fill="white"/>
</g>
<defs>
<filter id="filter0_d_2_78" x="11.1" y="13" width="30.8" height="40.9" filterUnits="userSpaceOnUse" color-interpolation-filters="sRGB">
<feFlood flood-opacity="0" result="BackgroundImageFix"/>
<feColorMatrix in="SourceAlpha" type="matrix" values="0 0 0 0 0 0 0 0 0 0 0 0 0 0 0 0 0 0 127 0" result="hardAlpha"/>
<feOffset dx="2" dy="4"/>
<feGaussianBlur stdDeviation="2"/>
<feComposite in2="hardAlpha" operator="out"/>
<feColorMatrix type="matrix" values="0 0 0 0 0 0 0 0 0 0 0 0 0 0 0 0 0 0 0.25 0"/>
<feBlend mode="normal" in2="BackgroundImageFix" result="effect1_dropShadow_2_78"/>
<feBlend mode="normal" in="SourceGraphic" in2="effect1_dropShadow_2_78" result="shape"/>
</filter>
<filter id="filter1_d_2_78" x="21" y="35" width="11.6029" height="11.6029" filterUnits="userSpaceOnUse" color-interpolation-filters="sRGB">
<feFlood flood-opacity="0" result="BackgroundImageFix"/>
<feColorMatrix in="SourceAlpha" type="matrix" values="0 0 0 0 0 0 0 0 0 0 0 0 0 0 0 0 0 0 127 0" result="hardAlpha"/>
<feOffset dy="4"/>
<feGaussianBlur stdDeviation="2"/>
<feComposite in2="hardAlpha" operator="out"/>
<feColorMatrix type="matrix" values="0 0 0 0 0 0 0 0 0 0 0 0 0 0 0 0 0 0 0.25 0"/>
<feBlend mode="normal" in2="BackgroundImageFix" result="effect1_dropShadow_2_78"/>
<feBlend mode="normal" in="SourceGraphic" in2="effect1_dropShadow_2_78" result="shape"/>
</filter>
<filter id="filter2_d_2_78" x="24" y="22" width="11.6029" height="11.6029" filterUnits="userSpaceOnUse" color-interpolation-filters="sRGB">
<feFlood flood-opacity="0" result="BackgroundImageFix"/>
<feColorMatrix in="SourceAlpha" type="matrix" values="0 0 0 0 0 0 0 0 0 0 0 0 0 0 0 0 0 0 127 0" result="hardAlpha"/>
<feOffset dy="4"/>
<feGaussianBlur stdDeviation="2"/>
<feComposite in2="hardAlpha" operator="out"/>
<feColorMatrix type="matrix" values="0 0 0 0 0 0 0 0 0 0 0 0 0 0 0 0 0 0 0.25 0"/>
<feBlend mode="normal" in2="BackgroundImageFix" result="effect1_dropShadow_2_78"/>
<feBlend mode="normal" in="SourceGraphic" in2="effect1_dropShadow_2_78" result="shape"/>
</filter>
</defs>
</svg>
